# xmcd
#
# Track frame offsets:
#	150
#	6072
#	20996
#	36585
#	59993
#	74379
#	93232
#	105858
#	121984
#	135929
#	145066
#	159010
#	175875
#	187961
#	205792
#	219524
#	232941
#	244197
#	257738
#	272232
#	285987
#	297515
#	312229
#	321824
#	331525
#
# Disc length: 4666 seconds
#
# Revision: 0
# Processed by: cddbd v1.5.2PL0 Copyright (c) Steve Scherf et al.
# Submitted via: audiograbber 1.83.01
#
DISCID=66123819
DTITLE=Olli Banjo - Sparring 3
DYEAR=2008
DGENRE=Hip-Hop
TTITLE0=Sparring 3 - Intro
TTITLE1=Sparring 3 Theme feat. Jasmin Shakeri
TTITLE2=Denkmal feat. Kool Savas, Caput and Moe Mitchell
TTITLE3=Hoch Uff die Box feat. KIZ
TTITLE4=Unmöglich Pt. 2 feat. Laas Unlimited
TTITLE5=Boxring feat. B-Tight
TTITLE6=Ich geh Boxen
TTITLE7=16 Take Schwachsinn feat. Maeckes and Plan B
TTITLE8=Graffiti and Rap
TTITLE9=Kids
TTITLE10=Ich fliege über Deutschland feat. Gregpipe
TTITLE11=Luke Skywalker
TTITLE12=Viel zu Klärn feat. Jonesmann
TTITLE13=Nur für Euch feat. Lisi
TTITLE14=Kollabo des Todes feat. Tone
TTITLE15=Zwischen Genie and Wahnsinn feat. F.R.
TTITLE16=Der Auftrag feat. Marteria
TTITLE17=Amoklauf feat. Curse
TTITLE18=Revolution feat. Planet Asia
TTITLE19=Wie Schön feat. Retrogott (Huss and Hodn)
TTITLE20=Abgetaucht feat. PMA and Mädness
TTITLE21=Wer? feat. Manolito and Dj Flow
TTITLE22=Macht Kein Spass
TTITLE23=Sexy
TTITLE24=Meine Fam
EXTD=
EXTT0=
EXTT1=
EXTT2=
EXTT3=
EXTT4=
EXTT5=
EXTT6=
EXTT7=
EXTT8=
EXTT9=
EXTT10=
EXTT11=
EXTT12=
EXTT13=
EXTT14=
EXTT15=
EXTT16=
EXTT17=
EXTT18=
EXTT19=
EXTT20=
EXTT21=
EXTT22=
EXTT23=
EXTT24=
PLAYORDER=
